# xmcd CD database file
#
# Track frame offsets:
#	150
#	20902
#	47549
#	66344
#	82073
#	95112
#	111856
#	133259
#	174461
#	204433
#	224372
#	242573
#	265132
#	294203
#	316777
#
# Disc length: 4477 seconds
#
# Revision: 0
# Processed by: cddbd v1.5PL3 Copyright (c) Steve Scherf et al.
# Submitted via: CDex 1.50
#
DISCID=df117b0f
DTITLE=Albert King - The Feeling
DYEAR=1900
DGENRE=Blues
TTITLE0=Albert King - Truckload of Loving
TTITLE1=Albert King - Angel of Mercy
TTITLE2=Albert King - Cold Women with Warm Hearts
TTITLE3=Albert King - Born Under A Bad Sign
TTITLE4=Albert King - Flat Tire
TTITLE5=Albert King - Get Out of My Life Woman
TTITLE6=Albert King - Good Time Charlie
TTITLE7=Albert King - I Got the Blues
TTITLE8=Albert King - I'll Play the Blues for You ..
TTITLE9=Albert King - Cadillac Assembly Line
TTITLE10=Albert King - Love Shock
TTITLE11=Albert King - Nobody Wants A Loser
TTITLE12=Albert King - I Worked Hard
TTITLE13=Albert King - The Feeling
TTITLE14=Albert King - You Upset Me Baby
EXTD=
EXTT0=
EXTT1=
EXTT2=
EXTT3=
EXTT4=
EXTT5=
EXTT6=
EXTT7=
EXTT8=
EXTT9=
EXTT10=
EXTT11=
EXTT12=
EXTT13=
EXTT14=
PLAYORDER=
